<!DOCTYPE svg PUBLIC "-//W3C//DTD SVG 20010904//EN" "http://www.w3.org/TR/2001/REC-SVG-20010904/DTD/svg10.dtd">
<svg version="1.0" xmlns="http://www.w3.org/2000/svg" width="60px" height="60px" viewBox="0 0 600 600" preserveAspectRatio="xMidYMid meet">
<g id="layer101" fill="#9e101a" stroke="none">
<path d="M205 566 c-59 -27 -115 -72 -115 -92 0 -8 -4 -14 -9 -14 -15 0 -45 -100 -45 -150 0 -57 30 -141 66 -185 16 -19 58 -48 93 -66 56 -27 72 -31 118 -26 89 9 170 66 215 152 37 70 38 180 2 245 -37 69 -69 100 -135 131 -73 35 -123 37 -190 5z"/>
</g>
<g id="layer102" fill="#bc585f" stroke="none">
<path d="M189 459 c-28 -28 -24 -56 11 -74 16 -8 32 -26 36 -39 6 -27 25 -39 64 -41 22 -1 60 25 60 43 0 4 17 21 37 39 l38 31 -21 29 c-20 27 -24 28 -114 29 -78 1 -96 -2 -111 -17z"/>
<path d="M212 290 c-17 -27 -15 -59 4 -67 30 -11 48 53 21 75 -9 8 -16 6 -25 -8z"/>
<path d="M353 292 c-17 -11 -1 -66 19 -70 21 -4 32 31 18 58 -12 22 -18 24 -37 12z"/>
<path d="M290 151 c0 -12 5 -21 10 -21 6 0 10 6 10 14 0 8 -4 18 -10 21 -5 3 -10 -3 -10 -14z"/>
</g>
<g id="layer103" fill="#d29095" stroke="none">
<path d="M189 459 c-27 -27 -24 -56 9 -73 15 -8 33 -26 40 -40 12 -26 36 -42 63 -41 9 0 43 26 74 58 l58 58 -20 27 c-19 26 -24 27 -113 28 -78 1 -96 -2 -111 -17z"/>
<path d="M167 359 c-20 -12 -24 -69 -4 -69 20 0 37 21 37 46 0 28 -10 35 -33 23z"/>
<path d="M353 288 c-14 -18 -1 -62 19 -66 21 -4 32 31 18 58 -12 23 -23 25 -37 8z"/>
<path d="M282 268 c-26 -26 -7 -86 23 -75 12 5 15 17 13 44 -3 39 -16 51 -36 31z"/>
<path d="M290 152 c0 -12 4 -22 9 -22 10 0 9 26 -2 36 -4 4 -7 -2 -7 -14z"/>
</g>
<g id="layer104" fill="#fdfafb" stroke="none">
<path d="M189 459 c-27 -27 -24 -57 6 -71 14 -6 34 -26 45 -45 31 -52 67 -46 137 22 l56 56 -20 27 c-19 26 -24 27 -113 28 -78 1 -96 -2 -111 -17z"/>
<path d="M168 359 c-25 -14 -25 -72 -1 -67 21 4 41 54 27 67 -5 6 -16 6 -26 0z"/>
<path d="M405 358 c-12 -30 -1 -63 20 -63 27 0 30 27 6 56 -17 21 -20 22 -26 7z"/>
<path d="M212 288 c-17 -17 -15 -58 4 -65 20 -7 35 14 32 46 -3 28 -19 36 -36 19z"/>
<path d="M354 286 c-10 -25 0 -61 18 -64 21 -4 32 31 18 58 -13 23 -28 26 -36 6z"/>
<path d="M281 267 c-24 -24 -6 -85 23 -74 10 4 16 18 16 41 0 36 -19 53 -39 33z"/>
<path d="M370 185 c0 -8 5 -15 10 -15 6 0 10 7 10 15 0 8 -4 15 -10 15 -5 0 -10 -7 -10 -15z"/>
</g>


</svg>